<svg width="1200" height="750" viewBox="0 0 1200 750" fill="none" xmlns="http://www.w3.org/2000/svg">
  <rect width="1200" height="750" rx="40" fill="#07111F"/>
  <rect x="44" y="44" width="1112" height="662" rx="34" fill="url(#bg)"/>
  <rect x="118" y="110" width="964" height="126" rx="28" fill="#102033"/>
  <text x="160" y="164" fill="#D8ECFF" font-family="Arial, sans-serif" font-size="31" font-weight="700">Mathematics World Web</text>
  <text x="160" y="202" fill="#90D7FF" font-family="Arial, sans-serif" font-size="17">Interactive math learning website with playful modules, formulas, and visual exploration</text>
  <rect x="118" y="284" width="422" height="332" rx="30" fill="#102033"/>
  <rect x="576" y="284" width="506" height="332" rx="30" fill="#102033"/>
  <text x="156" y="332" fill="#D8ECFF" font-family="Arial, sans-serif" font-size="22" font-weight="700">Learning Modules</text>
  <g fill="#17395C">
    <rect x="156" y="374" width="346" height="34" rx="17"/>
    <rect x="156" y="426" width="296" height="34" rx="17"/>
    <rect x="156" y="478" width="330" height="34" rx="17"/>
  </g>
  <circle cx="346" cy="532" r="76" fill="#14345B"/>
  <text x="302" y="548" fill="#81E2FF" font-family="Arial, sans-serif" font-size="54" font-weight="700">π</text>
  <circle cx="450" cy="528" r="42" fill="#1A476A"/>
  <text x="423" y="541" fill="#FFE08F" font-family="Arial, sans-serif" font-size="28" font-weight="700">Σ</text>
  <text x="612" y="332" fill="#D8ECFF" font-family="Arial, sans-serif" font-size="22" font-weight="700">Interactive Playground</text>
  <path d="M638 550C680 486 722 450 772 438C822 426 870 442 918 404C958 372 994 328 1034 300" stroke="#79C8FF" stroke-width="12" stroke-linecap="round"/>
  <circle cx="638" cy="550" r="10" fill="#79C8FF"/>
  <circle cx="772" cy="438" r="10" fill="#79C8FF"/>
  <circle cx="918" cy="404" r="10" fill="#79C8FF"/>
  <circle cx="1034" cy="300" r="10" fill="#79C8FF"/>
  <g stroke="#49D6B3" stroke-width="10" stroke-linecap="round">
    <path d="M670 500L736 434L784 480L872 392"/>
    <path d="M672 360H780"/>
    <path d="M816 360H944"/>
  </g>
  <rect x="642" y="352" width="124" height="64" rx="22" fill="#14345B"/>
  <text x="680" y="393" fill="#9FE5FF" font-family="Arial, sans-serif" font-size="24" font-weight="700">x²</text>
  <rect x="814" y="334" width="168" height="82" rx="24" fill="#173E63"/>
  <text x="852" y="386" fill="#FFD98A" font-family="Arial, sans-serif" font-size="26" font-weight="700">f(x)</text>
  <rect x="118" y="644" width="294" height="40" rx="20" fill="#143256"/>
  <text x="148" y="670" fill="#A9D5FF" font-family="Arial, sans-serif" font-size="17" font-weight="700">Category: Web Development</text>
  <rect x="440" y="644" width="278" height="40" rx="20" fill="#12394E"/>
  <text x="468" y="670" fill="#87ECC2" font-family="Arial, sans-serif" font-size="17" font-weight="700">Focus: Math Education</text>
  <rect x="744" y="644" width="338" height="40" rx="20" fill="#153058"/>
  <text x="772" y="670" fill="#FFD78D" font-family="Arial, sans-serif" font-size="17" font-weight="700">Experience: Interactive Learning</text>
  <defs>
    <linearGradient id="bg" x1="44" y1="44" x2="1156" y2="706" gradientUnits="userSpaceOnUse">
      <stop stop-color="#08182C"/>
      <stop offset="1" stop-color="#12304D"/>
    </linearGradient>
  </defs>
</svg>
